<?xml version="1.0" encoding="utf-8"?>
<!-- Generator: Adobe Illustrator 27.7.0, SVG Export Plug-In . SVG Version: 6.00 Build 0)  -->
<svg version="1.1" id="Layer_1" xmlns="http://www.w3.org/2000/svg" xmlns:xlink="http://www.w3.org/1999/xlink" x="0px" y="0px"
	 viewBox="0 0 829 326" style="enable-background:new 0 0 829 326;" xml:space="preserve">
<style type="text/css">
	.st0{fill:#FFFFFF;}
	.st1{fill:#CD1125;}
	.st2{fill:#017B3D;}
</style>
<path class="st0" d="M-71-144h900v479H-71V-144z"/>
<path class="st1" d="M-71-21h900v123H-71V-21z"/>
<path d="M-71,216h900v135H-71V216z"/>
<path class="st2" d="M224.1,194.7H98.6c-1,8.8-10.1,15.3-20.4,14.5c-1.1-0.1-2.2-0.3-3.3-0.5c17.6-8.6,16.5-17.4,5.4-36.8
	c6.2-2.2,7.1-2.8,13.4-7c-4.4,13.4,11.4,11.7,23.1,11.7c0-4.7,0.5-10-3-10.7c4.5-1.6,4.9-2.1,12.1-8.2v18h86.6v-12.3
	c0-1.4-1.2-2.6-2.6-2.6c-1.4,0-2.6,1.2-2.6,2.6v7.1c0,1.1-0.9,1.9-1.9,1.9h-66.2v-11.7l49.7-48c-0.3,2.5,4.8,9.1,6.9,10.2
	c-1.6,0.3-3.4-0.1-4.6,1.1l-40.7,39.3h45.1c0-10.4,9.7-10.4,14.3-14.1c4.5,3.7,14.3,3.7,14.3,14.1L224.1,194.7L224.1,194.7z
	 M233.5,194.7v-82c4.6,2.5,8.2,5.4,13.9,6.9c-0.3,3.2-3.2,4.3-3.2,6.5v50.5c6.4,1.4,7.8-2.3,10.8-4.2c0.8,8,5.9,16,5.7,22.3H233.5z
	 M319.3,139.9l10.1-8.4v44.1h7.1v-50.1c3.5-2.9,8-6.1,10.1-9.8v79.1h-63.2c-0.9-16.3-0.9-33.1,18.2-29.5v-6.7c0-1.6-2.3-0.3-2.3-1.8
	l13-10.9v29.7h7.1L319.3,139.9L319.3,139.9z M316,117.3c-1.2,0.1-3.1-6.7-2.7-8c0.5-1.5,2.1-1.5,2.9-0.8
	C317.3,109.7,317.2,117.3,316,117.3L316,117.3z M304.2,126.5c-3.6-2.1-3-2.9,0.1-2c5.4,1.6,8.1,0.3,12-3.7l2.9,1.5
	c3.8,1.9,6.2,1.1,7.5-3.6c0.4-1.4,1.6-1,1.9,0.6c1.2,6.5-3.7,8.5-8.7,6.7c-2.7-0.9-3.2-0.9-4.5,0.1
	C312.5,128.4,308.2,128.8,304.2,126.5L304.2,126.5z M355.9,194.7v-82c4.6,2.5,8.2,5.4,13.9,6.9c-0.3,3.2-3.2,4.3-3.2,6.5v50.5
	c6.4,1.4,7.8-2.3,10.8-4.2c0.8,8,5.9,16,5.7,22.3H355.9z M110.1,203.8c0-2.1,1.7-3.8,3.8-3.8c2.1,0,3.8,1.7,3.8,3.8
	s-1.7,3.8-3.8,3.8C111.8,207.6,110.1,205.9,110.1,203.8z M295.6,174c0,1.2,1.3,2.2,2.9,2.2c1.6,0,2.9-1,2.9-2.2
	c0-1.2-1.3-2.2-2.9-2.2C296.9,171.8,295.6,172.7,295.6,174z"/>
</svg>
