<?xml version="1.0" encoding="utf-8"?>
<!-- Generator: Adobe Illustrator 27.7.0, SVG Export Plug-In . SVG Version: 6.00 Build 0)  -->
<svg version="1.1" id="Layer_1" xmlns="http://www.w3.org/2000/svg" xmlns:xlink="http://www.w3.org/1999/xlink" x="0px" y="0px"
	 viewBox="0 0 892 393" style="enable-background:new 0 0 892 393;" xml:space="preserve">
<style type="text/css">
	.st0{fill:#FFFFFF;}
	.st1{fill:#ED2024;}
	.st2{fill:#278E43;}
	.st3{fill:#FEBD11;}
</style>
<path class="st0" d="M-8-100h900v600H-8V-100z"/>
<path class="st1" d="M-8-78h900v200H-8V-78z"/>
<path class="st2" d="M-8,274h900v200H-8V274z"/>
<path class="st3" d="M259,63.2l10,67.8l29.5-61.8l-10.4,67.7l46.4-50.4l-29.9,61.6l59.2-34.5l-46.8,50.1l66.8-15.5l-59.5,34.1
	l68.4,4.9l-66.9,15l63.9,24.8l-68.3-5.3l53.7,42.6L311.4,239l38.8,56.5l-53.4-42.9l20.4,65.4l-38.4-56.7l0.2,68.5l-20-65.6l-20,65.6
	l0.2-68.5l-38.4,56.7l20.4-65.4l-53.4,42.9l38.8-56.5l-63.7,25.2l53.7-42.6l-68.3,5.3l63.9-24.8l-66.9-15l68.4-4.9l-59.5-34.1
	l66.8,15.5l-46.8-50.1l59.2,34.5l-29.9-61.6l46.4,50.4l-10.4-67.7l29.5,61.8L259,63.2L259,63.2z"/>
</svg>
